<?xml version="1.0" encoding="utf-8"?>
<!-- Generator: Adobe Illustrator 15.0.2, SVG Export Plug-In . SVG Version: 6.00 Build 0)  -->
<!DOCTYPE svg PUBLIC "-//W3C//DTD SVG 1.1 Tiny//EN" "http://www.w3.org/Graphics/SVG/1.1/DTD/svg11-tiny.dtd">
<svg version="1.1" baseProfile="tiny" id="Layer_2" xmlns="http://www.w3.org/2000/svg" xmlns:xlink="http://www.w3.org/1999/xlink"
	 x="0px" y="0px" width="612px" height="792px" viewBox="0 0 612 792" xml:space="preserve">
<path fill="#3C2415" d="M-64.004,23.22c-2.907,0.087-3.883-1.378-3.887-3.329c-0.006-2.841,2.046-6.712,3.197-8.333
	c3.107-4.373,9.326-7.926,15.729-9.763c12.241-3.512,27.801-0.587,31.081,8.803c0.608,1.74,0.579,4.64-2.951,4.572
	c-2.824-0.056-2.555-2.529-3.375-4c-2.467-4.428-9.203-6.339-15.771-6.136c-6.789,0.211-13.707,2.786-18.112,6.979
	c-2.009,1.916-3.335,4.24-3.449,6.621C-61.623,20.337-60.87,22.654-64.004,23.22 M69.383,30.962
	c-0.074,2.654-1.421,5.189-4.013,6.706c-4.343,2.54-9.966,0.706-13.808-2.043c0.943,2.772-0.476,3.258-2.948,3.878
	c-2.209,0.556-4.471,0.949-6.728,1.254c-1.316,0.177-3.854,0.822-4.985-0.157c-0.416,2.336-1.404,3.173-2.63,3.19
	c-1.654,0.024-3.743-1.439-5.451-2.723c-3.374-2.532-5.673-5.813-7.987-9.311c0.051,2.483,2.056,11.036-1.579,11.886
	c-0.646,0.151-1.342,0.271-1.997,0.263c-1.109-0.013-2.104-0.392-2.551-1.604c-0.903-2.45-0.932-5.326-1.061-7.904
	C10.104,43.9-3.877,44.509-9.609,36.978c0.426,2.1,0.966,4.318-1.47,5.155c-0.586,0.201-1.426,0.531-2.22,0.635
	c-0.794,0.103-1.542-0.021-1.942-0.724c-0.971-1.703-0.838-4.339-1.055-6.213c-0.334-2.891-0.87-5.76-1.33-8.633
	c-1.377,1.888-2.696,3.758-4.028,5.676c-0.922,1.329-1.886,1.79-3.481,1.505c-3.591-0.643-4.755-5.837-5.795-8.775
	c-1.839,3.931-3.313,8.249-5.598,11.943c-1.377,2.229-6.116,1.435-6.132-1.306c-1.794,2.323-4.034,3.13-6.326,2.988
	c-3.653-0.225-7.439-2.855-9.769-5.594c-1.085-1.274-2.891-3.602-0.277-4.356c1.149-0.332,3.278-1.002,4.251-0.017
	c0.814,0.823,0.954,2.085,1.655,2.976c1.25,1.137,2.177,2.685,4.116,2.114c1.313-0.387,2.07-1.302,2.025-2.665
	c-0.104-3.128-3.052-4.789-4.419-7.386c-1.491-2.838-2.278-5.599-0.668-8.663c1.401-2.665,4.204-3.861,7.178-3.861h0
	c2.537,0,4.52,1.299,5.909,3.373c1.107,1.654,2.078,4.232,0.023,5.548c-1.052,0.674-3.034,1.799-4.058,0.508
	c-0.87-1.097-1.334-3.741-3.003-3.956c-0.209,0.096-0.609,0.952-0.503,2.018c1.67,4.378,5.925,7.432,5.454,12.526
	c1.502-2.938,3.221-5.715,4.405-8.808c0.849-2.216,1.675-6.407,4.466-6.948c2.506-0.485,4.309-0.318,5.126,2.222
	c0.873,2.712,1.814,5.382,3.143,7.914c2.698-3.188,4.189-9.122,9.063-9.122c2.758,0,2.473,2.693,2.685,4.733
	c0.275,2.656,0.406,5.452,0.916,8.069c0.579-6.306,5.382-10.916,11.338-12.681c6.136-1.819,11.211,1.771,13.441,7.404
	c0.014,0.031,0.06,0.105,0.099,0.167c0.103-2.163-0.243-6.857,2.455-7.651c2.966-0.873,6.792-1.045,9.868-0.918
	c1.568,0.065,3.115,0.661,4.264,1.641c-0.006-0.106-0.015-0.213-0.018-0.321c-0.042-1.604,0.465-3.435,1.536-5.205
	c2.897-4.79,7.681-12.844,0-16.071C-0.565-3.2-32.831-3.506-65.096-4.705c-1.229-1.238-1.741-3.946-1.728-6.557
	c0.014-2.896,0.677-5.671,1.728-6.177c2.792-1.345,8.538-4.923,9.186-9.714c12.821,9.392,35.257,8.629,50.407,8.673
	c0.115,0,0.172,0,0.286,0c15.125,0.01,37.632,0.837,50.419-8.584c0.645,4.806,6.363,8.439,9.191,9.823
	c1.975,0.966,2.606,10.213,0,12.855c0.029-0.001,0.043-0.002,0.072-0.003c-7.449,3.466-3.126,10.955,0,15.789
	c0.324,0.501,0.59,1.012,0.811,1.522c3.679-2.968,9.997-3.155,11.956,2c0.628,1.653-1.163,4.238-2.869,4.566
	c-2.107,0.396-3.121-3.228-5.345-2.77c-0.159,0.167-0.212,1.111,0.277,2.062c1.209,1.313,2.124,2.257,3.725,3.16
	c1.593,0.9,3.281,1.833,4.427,3.303C68.795,26.974,69.437,29,69.383,30.962z M2.242,22.313c-3.834,0.584-7.677,4.795-7.405,8.83
	c0.233,3.445,3.687,5.88,6.961,5.88c3.964,0,6.11-3.768,6.452-7.252C8.587,26.316,6.319,21.692,2.242,22.313z M36.019,38.392
	c-0.78-4.379-1.424-8.782-2.048-13.188c-0.788-0.687-1.483-1.467-2.058-2.327c-0.736,3.225-3.554,4.713-6.499,5.476
	c1.508,1.96,3.244,3.756,4.857,5.628C31.946,35.923,34.075,36.822,36.019,38.392z M63.767,31.788c0.21-2.962-3.18-3.977-5.153-5.073
	c-1.727-0.96-3.482-2.535-4.648-4.386c-0.386,0.553-0.817,1.077-1.288,1.567c0.234,0.604,0.348,1.364,0.325,2.301
	c-0.082,3.353-9.882,2.873-11.954,3.277c0.056,1.304,0.547,4.217,0.898,5.575c1.972-0.441,6.61-2.911,8.523-1.469l0.111,0.091
	c0.376-1.193,2.747-2.55,3.934-2.681c1.482-0.163,2.331,1.635,3.45,2.282C59.842,33.978,63.515,35.287,63.767,31.788z M18.421,8.375
	c0,1.887,1.529,3.415,3.415,3.415c1.886,0,3.415-1.528,3.415-3.415c0-1.885-1.529-3.414-3.415-3.414
	C19.95,4.961,18.421,6.489,18.421,8.375z M7.276,4.961c-1.886,0-3.415,1.528-3.415,3.414S5.39,11.79,7.276,11.79
	c1.885,0,3.415-1.529,3.415-3.415S9.161,4.961,7.276,4.961z M82.913-5.671h-0.004v0.005h0.004V-5.671L82.913-5.671z"/>
</svg>
