<?xml version="1.0" encoding="utf-8"?>
<!-- Generator: Adobe Illustrator 15.0.2, SVG Export Plug-In . SVG Version: 6.00 Build 0)  -->
<!DOCTYPE svg PUBLIC "-//W3C//DTD SVG 1.1 Tiny//EN" "http://www.w3.org/Graphics/SVG/1.1/DTD/svg11-tiny.dtd">
<svg version="1.1" baseProfile="tiny" id="レイヤー_1"
	 xmlns="http://www.w3.org/2000/svg" xmlns:xlink="http://www.w3.org/1999/xlink" x="0px" y="0px" width="504px" height="504px"
	 viewBox="0 0 504 504" xml:space="preserve">
<g id="Layer_2">
	<path fill="#418CCB" d="M-7.284-16.294c0,0,6.557-9.714,1.821-20.885c0,0-2.125-5.768-5.161-7.347c0,0-1.518-2.185,1.032-2.246
		c0,0,2.55-1.032,6.314,9.593c0,0-0.607-9.957,6.132-10.685c0,0,8.56-1.336,6.921,6.921c0,0-2.064,5.707-6.496,1.093
		c0,0-0.729-2.003,1.275-2.732c0,0,2.003-0.425,2.55,1.518c0,0,1.761-4.857-4.128-4.979c0,0-5.04,0.061-5.525,8.682
		c0,0,0.061,7.286-0.06,8.682c0,0-0.425,8.257-5.525,14.632c0,0-0.789,1.093-0.971,2.125c0,0,7.588-5.889,8.681-11.535
		c0,0,0.426-5.768,6.801-7.832c0,0,3.035,2.672-0.425,6.982c0,0,2.064-0.668,2.914-4.189c0,0,0.364-2.307,4.918-3.946
		c0,0,1.882-0.061,1.639-3.096c0,0,3.583,5.524-3.035,11.292c0,0-3.036,3.278-10.564,6.375c0,0-8.317,3.157-14.207,11.596
		c0,0,6.557-7.528,16.453-7.042c0,0,8.803,0.728,11.778,9.045c0,0,1.396,6.921-3.46,7.468c0,0,2.367-1.943-0.607-2.793
		c0,0-4.007-1.579-3.643-5.1c0,0-0.546-2.428-2.368-1.942c0,0,4.855,5.586-2.916,5.586c0,0,0.971-6.01-8.561-5.403
		c0,0-5.464,0.486-7.164,6.193c0,0,7.347-8.986,13.358-2.186c0,0-1.458,0.061-2.186,1.639l-0.546,1.032c0,0-0.486,2.55-4.432,3.036
		c0,0-2.307,0.607-3.886,3.157c0,0,6.618-5.161,5.95,3.035l-0.364,0.607c0,0-2.125-2.732-5.829,0.607c0,0-6.497,5.646-3.096,15.178
		c0,0,2.55,3.096,1.032-0.972c0,0-3.764-13.478,6.496-13.781c0,0-0.971,1.518,0.546,3.278c0,0,2.368,3.035,0.79,6.496
		c0,0-1.275,2.247-0.425,3.704c0,0,2.308-7.104,6.921-2.733c0,0-4.492,4.311,0.061,10.746c0,0,1.882,4.007,8.925,5.585
		c0,0-13.661-6.131-6.436-16.087c0,0-0.365,3.097,2.61,3.4c2.975,0.303-0.061,0.242-0.061,0.242s4.189,0.244,5.1,3.4
		c0,0,1.821-6.617,5.524-2.55c0,0-3.764,0.242-1.214,3.703c0,0,9.289,9.228,18.638-2.611c0,0,1.093,2.246,4.918,1.153
		c0,0,3.036-1.032,3.825,1.579c0,0-3.703-1.457-6.678,1.579c0,0-4.066,4.37-9.106,6.435c0,0-7.771,3.157-8.196,8.439
		c0,0-1.457,5.524,3.339,5.524c0,0-2.307,5.343-7.103,0.911c0,0-2.125-2.064,0.425-7.285c0,0-2.854,1.76-2.247,7.042
		c0,0,1.457,3.643,0.061,6.375c0,0-2.368,4.068,1.275,3.218s0,0.243,0,0.243s-3.035,4.128-6.496-1.882c0,0-1.942-6.861,3.704-13.661
		c0,0,2.246-3.339,8.56-6.921c0,0-11.657,3.582-22.889-1.821c0,0-7.043-2.611-12.75-0.851c0,0-7.285,3.036-3.217,8.439
		c0,0-4.069,1.334-4.797-3.219c0,0-0.183-4.128,3.703-5.828c0,0-0.607-1.396-2.975,1.639c0,0-1.7,5.342-5.039,4.735
		c0,0-3.643-0.06-2.185,4.796c0,0-5.646-6.01,3.217-12.324c0,0,7.953-5.585,19.61,0.122c0,0-9.472-6.375-11.961-16.635
		c0,0-2.976-9.896-8.622-11.96c0,0-6.193-1.64-4.736,3.096c0,0-5.16,0-1.76-5.524c0,0,1.882-2.368,6.618-0.486
		c0,0-0.85-2.003-6.436-1.821c0,0-2.671,1.214-6.071-0.364c0,0-1.7-1.457-3.946-0.303c0,0-0.182-4.493,5.707-5.282
		c0,0,7.467-0.85,12.871,5.343c0,0,3.46,3.582,5.282,11.778c0,0-1.153-8.075,5.829-20.521c0,0,4.433-5.585,3.218-14.389
		c0,0-0.911-6.011-5.829-3.097c0,0-0.85-4.432,3.521-4.128c0,0,3.278,0.182,3.946,4.796c0,0,1.882-1.639-2.003-5.1
		c0,0-3.521-1.153-4.432-4.371c0,0,0.364-3.521-3.218-2.49c0,0,3.764-4.492,9.653,1.7s-0.061,0.303-0.061,0.303
		S-3.155-28.557-7.284-16.294z"/>
</g>
<g id="Layer_3">
	<path fill="#418CCB" d="M-11.594-43.888c0,0-1.821-1.73,0.091-3.916c0,0,2.094-1.913,4.28,0.729c0,0,6.056-5.828,0.774-8.879
		c0,0-4.827-2.049-5.282,5.008c0,0-1.366-8.105-7.604-3.961c0,0-5.191,5.782,4.28,7.649c0,0-6.967,0.911-3.688,5.919
		C-18.742-41.338-15.1-36.921-11.594-43.888z"/>
	<path fill="#418CCB" d="M-22.431-9.556c0,0-1.821-1.73,0.091-3.916c0,0,2.095-1.913,4.28,0.728c0,0,6.056-5.828,0.774-8.878
		c0,0-4.826-2.049-5.282,5.008c0,0-1.366-8.105-7.604-3.961c0,0-5.191,5.783,4.28,7.65c0,0-6.967,0.91-3.688,5.919
		C-29.58-7.006-25.937-2.589-22.431-9.556z"/>
	<path fill="#F7FCFC" d="M-19.699-14.928c0,0-0.774-4.462,1.275-4.189C-18.424-19.117-16.01-18.525-19.699-14.928z"/>
	<path fill="#F7FCFC" d="M-23.433-14.108c0,0-6.647-2.186-5.009-4.28C-28.441-18.389-26.62-20.393-23.433-14.108z"/>
	<path fill="#F7FCFC" d="M-23.933-10.648c0,0-4.781-0.455-4.098,1.548C-28.031-9.1-26.847-6.96-23.933-10.648z"/>
	<path fill="#418CCB" d="M-24.907,24.906c0,0-2.63,0.228-3.017-2.8c0,0-0.046-2.98,3.555-2.86c0,0-0.367-8.824-6.446-6.793
		c0,0-4.974,2.369,0.261,7.644c0,0-7.328-4.571-8.414,3.223c0,0,0.934,8.111,9,1.961c0,0-4.137,6.114,2.087,7.024
		C-27.88,32.306-21.868,32.516-24.907,24.906z"/>
	<path fill="#F7FCFC" d="M-27.23,19.014c0,0-4.05-2.5-2.408-3.921C-29.638,15.093-27.491,13.607-27.23,19.014z"/>
	<path fill="#F7FCFC" d="M-29.186,22.522c0,0-6.351,3.708-6.856,0.959C-36.042,23.48-36.35,20.652-29.186,22.522z"/>
	<path fill="#F7FCFC" d="M-26.813,25.326c0,0-3.688,3.444-1.637,4.303C-28.45,29.628-25.941,30.188-26.813,25.326z"/>
	<path fill="#418CCB" d="M-0.3,47.409c0,0-1.651,2.312-4.401,0.514c0,0-2.472-2.045,0.143-4.909c0,0-7.483-5.867-10.068,0.531
		c0,0-1.535,5.729,6.442,5.127c0,0-8.863,2.807-3.24,9.143c0,0,7.295,4.903,7.895-6c0,0,2.117,7.66,7.211,3.199
		C3.682,55.015,8.055,50.239-0.3,47.409z"/>
	<path fill="#F7FCFC" d="M-6.749,45.194c0,0-4.876,1.571-4.894-0.768C-11.643,44.426-11.359,41.63-6.749,45.194z"/>
	<path fill="#F7FCFC" d="M-5.243,49.248c0,0-1.401,7.791-4.005,6.284C-9.249,55.532-11.78,53.808-5.243,49.248z"/>
	<path fill="#F7FCFC" d="M-1.288,49.264c0,0,0.243,5.427,2.38,4.347C1.092,53.61,3.302,51.948-1.288,49.264z"/>
	<path fill="#F7FCFC" d="M-8.862-49.625c0,0-0.774-4.462,1.275-4.189C-7.587-53.814-5.173-53.222-8.862-49.625z"/>
	<path fill="#F7FCFC" d="M-12.595-48.806c0,0-6.648-2.186-5.009-4.28C-17.604-53.085-15.783-55.089-12.595-48.806z"/>
	<path fill="#F7FCFC" d="M-13.096-45.345c0,0-4.781-0.455-4.098,1.548C-17.194-43.797-16.01-41.657-13.096-45.345z"/>
</g>
<g id="Layer_5">
	<path fill="#33C6F4" d="M-19.881-54.27c0,0-8.196-3.461-13.842,3.552c0,0-4.007,5.737,0.729,9.926c0,0,4.371,4.28,8.469-1.184
		c0,0,2.368-4.372-2.823-5.646c0,0-3.825,0.273-2.368,3.005c0,0,0.517,1.518,2.49,0.273c0,0,0.759,2.216-1.913,2.216
		c0,0-3.278,0.091-3.187-3.521c0,0-0.972-5.464,5.585-7.65c0,0,2.671-1.001,6.375-0.061L-19.881-54.27z"/>
	<path fill="#33C6F4" d="M-4.035,7.155c0,0,3.233-4.872,9.927-2.823c0,0,2.549,0.683,6.056,2.868c0,0,8.014,5.646,13.615,3.188
		c0,0,8.97-4.326,3.643-11.292c0,0-2.095-1.912-4.599-1.001c0,0-1.366,0.638-1.73,2.413c0,0,1.229-1.229,2.914,0.046
		c0,0,2.277,2.231-0.546,4.052c0,0-2.231,1.184-4.144-0.865c0,0-1.821-1.64-0.501-5.282c0,0,2.368-4.052,7.376-2.777
		c0,0,8.333,2.504,4.189,11.975c0,0-1.685,4.645-10.518,5.1c0,0-5.327,0.183-11.793-5.327c0,0,3.142,3.324,4.098,6.511
		c0,0,1.534,5.312,4.175,7.679c0,0,2.216,2.884,4.644,0.577c0,0-2.702-0.243-1.7-2.55c0,0,1.063-2.52,3.34-0.425
		c0,0,2.155,2.398-0.911,4.917c0,0-3.066,2.034-6.102-0.82c0,0-1.882-1.457-3.005-4.735c0,0-0.942-4.312-3.097-7.772
		c0,0,1.426,6.344-4.767,7.771c0,0-5.16,1.365-6.131-3.37c0,0-1.032-3.522,2.702-4.888c0,0,4.189-0.85,3.309,3.005
		c0,0-0.121,1.792-1.761,1.458c0,0-1.943-0.243-0.85-2.064c0,0-1.7-0.456-1.426,2.368c0,0,0.758,2.944,4.158,1.73
		c0,0,3.491-1.185,3.309-5.252c0,0,0-5.767-5.95-6.526C3.887,5.043,1.064,4.229-4.035,7.155z"/>
</g>
<g id="Layer_6">
	<path fill="#ABDEE9" d="M-18.029,1.069c0,0,0.729-6.678-2.792-10.382c0,0-2.186-2.246-0.061-3.157c0,0,2.125-1.032,2.853,2.914
		C-18.029-9.556-16.147-3.545-18.029,1.069z"/>
	<path fill="#ABDEE9" d="M-14.297,29.473c0,0-4.209-5.236-9.318-5.362c0,0-3.133-0.042-2.276-2.188c0,0,0.772-2.233,4.078,0.042
		C-21.813,21.964-16.231,24.88-14.297,29.473z"/>
	<path fill="#ABDEE9" d="M6.899,41.63c0,0-5.64,0.585-8.07,4.148c0,0-1.465,2.202-2.594,0.611c0,0-1.229-1.571,1.897-2.872
		C-1.867,43.517,2.757,40.896,6.899,41.63z"/>
</g>
</svg>
